<?xml version="1.0" encoding="utf-8"?>
<!-- Generator: Adobe Illustrator 16.0.0, SVG Export Plug-In . SVG Version: 6.00 Build 0)  -->
<!DOCTYPE svg PUBLIC "-//W3C//DTD SVG 1.1//EN" "http://www.w3.org/Graphics/SVG/1.1/DTD/svg11.dtd">
<svg version="1.1" id="Layer_1" xmlns="http://www.w3.org/2000/svg" xmlns:xlink="http://www.w3.org/1999/xlink" x="0px" y="0px"
	 width="6453px" height="5696px" viewBox="0 0 6453 5696" enable-background="new 0 0 6453 5696" xml:space="preserve">
<g>
	<path fill="#A02816" stroke="#912010" stroke-miterlimit="10" d="M1133.628,2780.756c-7.567,114.683-54.521,210.847-140.841,288.5
		c-86.315,77.65-186.607,112.707-300.854,105.168c-115.117-7.596-208.962-52.322-281.506-134.18
		c-74.562-84.145-107.809-187.229-99.759-309.229c7.425-112.526,54.196-206.108,140.312-280.742
		c86.121-74.638,185.458-108.238,297.993-100.813c112.099,7.396,206.075,53.225,281.928,137.453
		C1106.756,2571.164,1140.995,2669.108,1133.628,2780.756z M925.976,2777.491c3.702-56.109-12.723-105.975-49.237-149.576
		c-36.532-43.584-82.814-67.24-138.868-70.938c-56.921-3.756-107.417,13.295-151.479,51.137
		c-44.075,37.848-67.979,85.254-71.739,142.236c-3.702,56.109,12.819,105.873,49.584,149.271
		c36.749,43.395,82.948,66.92,138.561,70.59c57.34,3.783,107.925-13.141,151.775-50.797
		C898.416,2881.777,922.215,2834.473,925.976,2777.491z"/>
	<path fill="#A02816" stroke="#912010" stroke-miterlimit="10" d="M2032.835,2513.026l-335.229,129.044l-54.825-142.431
		l60.506-23.291l-48.435-51.9l-197.716,76.11l2.381,67.49l74.559-28.7l55.543,144.291l-328.611,126.49l-62.352-161.979
		l65.326-25.146l9.215-486.668l-67.74,26.074l-61.637-160.118l287.913-110.83l461.935,489.148l76.813-29.57L2032.835,2513.026z
		 M1553.56,2295.631l-118.576-147.817l8.729,190.101L1553.56,2295.631z"/>
	<path fill="#A02816" stroke="#912010" stroke-miterlimit="10" d="M2881.641,2397.706l-374.268,53.243l-23.46-164.921l59.192-8.42
		l-206.528-153.992l25.568,179.734l71.4-10.157l23.458,164.921l-348.605,49.593l-24.448-171.834l74.442-10.589l-63.505-446.376
		l-74.434,10.587l-24.167-169.859l341.697-48.609l24.164,169.859l-64.484,9.174l23.32,163.937l153.144-189.042l-54.703,7.778
		l-24.165-169.862l355.013-50.504l24.164,169.867l-44.917,6.387l-214.965,251.472l275.903,195.271l66.735-9.495L2881.641,2397.706z"
		/>
	<path fill="#A02816" stroke="#912010" stroke-miterlimit="10" d="M3567.895,2388.396H2955.43v-173.564h82.312v-450.87h-82.312
		v-171.569h354.531v171.566h-70.244v438.9h137.654v-109.727h190.52L3567.895,2388.396L3567.895,2388.396z"/>
	<path fill="#A02816" stroke="#912010" stroke-miterlimit="10" d="M4451.266,2506.238l-355.951-48.27l20.51-151.234l64.248,8.713
		l-17.467-68.805l-209.939-28.474l-30.404,60.305l79.17,10.733l-20.777,153.211l-348.928-47.323l23.328-171.988l69.361,9.405
		l242.359-422.13l-71.928-9.753l23.057-170.012l305.713,41.458l169.41,651.107l81.566,11.065L4451.266,2506.238z M4135.83,2084.967
		l-32.77-186.649l-83.863,170.83L4135.83,2084.967z"/>
	<path fill="#A02816" stroke="#912010" stroke-miterlimit="10" d="M5508.01,2208.271l-70.42-24.417l-204.568,589.976
		l-175.178-60.743l-145.422-500.805l-82.545,238.057l74.453,25.815l-56.859,163.984l-331.748-115.026l56.861-163.986l70.688,24.506
		l147.707-425.988l-75.398-26.143l56.209-162.103l238.836,82.817l150.496,515.626l87.24-251.606l-79.605-27.601l56.211-162.103
		l339.252,117.639L5508.01,2208.271z"/>
	<path fill="#A02816" stroke="#912010" stroke-miterlimit="10" d="M6159.893,2956.348
		c-67.758,93.51-149.664,151.664-245.686,174.479c-105.016,24.859-207.014,1.414-306.037-70.338l-328.029-237.701l101.84-140.543
		l60.885,44.117l264.559-365.094l-60.883-44.118l100.668-138.929l331.693,240.362c94.822,68.708,148.287,154.726,160.42,258.039
		C6250.828,2774.141,6224.348,2867.396,6159.893,2956.348z M5987.127,2850.119c38.613-53.279,54.775-106.535,48.514-159.73
		c-6.789-58.387-40.623-109.639-101.504-153.756l-56.678-41.07l-252.264,348.133l99.719,72.257
		c43.727,31.688,91.287,39.684,142.693,24.002C5914.254,2925.639,5954.096,2895.705,5987.127,2850.119z"/>
</g>
<g>
	<path fill="#A02816" stroke="#912010" stroke-width="0.8791" stroke-miterlimit="10" d="M1616.933,3218.462h-79.662v-55.092
		h-38.827v251.801h39.83v99.096h-182.755v-99.096h38.493V3163.37h-38.493v56.57h-82.336v-159.361h343.749L1616.933,3218.462
		L1616.933,3218.462z"/>
	<path fill="#A02816" stroke="#912010" stroke-width="0.8791" stroke-miterlimit="10" d="M2041.695,3514.267h-107.108
		l-100.749-154.188v55.092h23.43v99.096h-171.708v-99.096h42.509v-256.979h-42.509v-97.611h185.431
		c53.104,0,94.054,14.418,122.839,43.256c27.664,27.855,41.503,66.064,41.503,114.623c0,40.676-9.037,73.094-27.111,97.246
		c-14.951,19.961-33.694,32.049-56.232,36.234l46.189,63.232h43.514L2041.695,3514.267L2041.695,3514.267z M1932.246,3225.487
		c0-24.646-7.928-42.023-23.765-52.135c-10.492-6.654-24.661-9.984-42.51-9.984h-33.468v122.391h29.784
		c19.414,0,35.031-3.945,46.861-11.836C1924.546,3263.821,1932.246,3247.675,1932.246,3225.487z"/>
	<path fill="#A02816" stroke="#912010" stroke-width="0.8791" stroke-miterlimit="10" d="M2530.328,3514.267h-185.43v-86.895h33.472
		l-13.721-36.975h-109.454l-11.378,35.863h41.169v88h-181.75v-99.09h36.149l94.723-256.979h-37.484v-97.615h159.323l131.875,354.592
		h42.509L2530.328,3514.267L2530.328,3514.267z M2339.877,3300.919l-29.792-103.16l-31.126,103.16H2339.877z"/>
	<path fill="#A02816" stroke="#912010" stroke-width="0.8791" stroke-miterlimit="10" d="M2963.887,3348.985
		c-12.947,54.234-38.104,97.191-75.476,128.861c-37.379,31.678-81.503,47.514-132.378,47.514
		c-58.243,0-108.279-22.982-150.122-68.961c-41.839-45.973-62.758-101-62.758-165.094c0-64.582,20.922-120.105,62.758-166.574
		c41.84-46.463,91.879-69.697,150.122-69.697c24.766,0,47.864,5.674,69.283,17.008c20.083,10.604,33.133,23.172,39.159,37.713
		v-49.178h87.025v176.002h-100.746c-19.864-42.395-50.99-63.596-93.383-63.596c-30.577,0-56.067,11.031-76.482,33.092
		c-20.419,22.066-30.627,49.119-30.627,81.162c0,32.783,10.152,61.137,30.458,85.041c20.301,23.914,44.963,35.863,73.972,35.863
		c21.197,0,39.663-4.867,55.396-14.607c15.729-9.732,28.836-24.586,39.328-44.553L2963.887,3348.985L2963.887,3348.985z"/>
	<path fill="#A02816" stroke="#912010" stroke-width="0.8791" stroke-miterlimit="10" d="M3435.594,3514.267h-195.475v-95.027
		h31.131l-94.39-103.164v103.164h37.152v95.023h-181.749v-99.092h38.827v-256.977h-38.827v-97.613h178.067v97.613h-33.471v94.654
		l92.046-94.654h-28.787v-97.613h185.43v97.613h-23.432l-128.195,124.975l126.855,132.002h34.811L3435.594,3514.267
		L3435.594,3514.267z"/>
	<path fill="#A02816" stroke="#912010" stroke-width="0.8791" stroke-miterlimit="10" d="M4048.404,3348.985
		c-12.943,54.234-38.104,97.191-75.479,128.861c-37.377,31.678-81.5,47.514-132.379,47.514c-58.24,0-108.281-22.982-150.119-68.961
		c-41.84-45.973-62.758-101-62.758-165.094c0-64.582,20.922-120.105,62.758-166.574c41.838-46.463,91.879-69.697,150.119-69.697
		c24.77,0,47.865,5.674,69.283,17.008c20.088,10.604,33.139,23.172,39.164,37.713v-49.178h87.023v176.002H3935.27
		c-19.859-42.395-50.988-63.596-93.383-63.596c-30.572,0-56.062,11.031-76.482,33.092c-20.414,22.066-30.623,49.119-30.623,81.162
		c0,32.783,10.15,61.137,30.459,85.041c20.299,23.914,44.957,35.863,73.971,35.863c21.197,0,39.662-4.867,55.396-14.607
		c15.729-9.732,28.838-24.586,39.33-44.553L4048.404,3348.985L4048.404,3348.985L4048.404,3348.985z"/>
	<path fill="#A02816" stroke="#912010" stroke-width="0.8791" stroke-miterlimit="10" d="M4424.324,3514.267h-316.303v-99.096
		h42.504v-256.977h-42.504v-97.613h183.088v97.613h-36.148v249.957h70.957v-61.748h98.404L4424.324,3514.267L4424.324,3514.267z"/>
	<path fill="#A02816" stroke="#912010" stroke-width="0.8791" stroke-miterlimit="10" d="M4839.955,3158.194h-39.83v201.885
		c0,46.588-14.172,85.539-42.508,116.842c-29.23,32.297-66.166,48.438-110.787,48.438c-49.09,0-87.25-15.281-114.471-45.85
		c-25.666-28.842-38.492-66.797-38.492-113.885v-207.43h-37.484v-97.613h167.021v97.613h-26.451v199.297
		c0,15.529,5.191,28.779,15.566,39.75c10.371,10.973,22.703,16.453,36.984,16.453c14.059,0,26.049-5.975,35.982-17.934
		c9.924-11.951,14.896-26.068,14.896-42.332v-195.232h-32.465v-97.615h172.043v97.615v-0.002H4839.955L4839.955,3158.194z"/>
	<path fill="#A02816" stroke="#912010" stroke-width="0.8791" stroke-miterlimit="10" d="M5250.141,3388.919
		c0,35.496-12.67,65.264-37.992,89.297c-25.328,24.033-54.951,36.055-88.865,36.055h-214.215v-99.094h44.85v-256.98h-44.85v-97.615
		h222.92c28.334,0,52.213,10.479,71.629,31.426c19.412,20.959,29.119,47.951,29.119,80.982c0,21.939-4.131,40.793-12.391,56.574
		c-9.148,17.256-22.422,29.207-39.828,35.863c23.873,11.092,41.615,27.486,53.221,49.178
		C5244.668,3334.815,5250.141,3359.591,5250.141,3388.919z M5138.01,3193.69c0-13.061-4.799-22.557-14.393-28.469
		c-7.588-4.68-17.967-7.027-31.129-7.027h-34.809v70.99h33.469c13.166,0,23.65-2.334,31.465-7.023
		C5132.871,3216.001,5138.01,3206.511,5138.01,3193.69z M5147.381,3367.106c0-15.535-4.797-27.238-14.393-35.133
		c-8.26-6.9-19.303-10.352-33.135-10.352h-42.174v93.545h41.172c12.496,0,23.711-4.557,33.645-13.68
		C5142.412,3392.374,5147.381,3380.911,5147.381,3367.106z"/>
</g>
</svg>
