<?xml version="1.0" encoding="utf-8"?>
<!-- Generator: Adobe Illustrator 16.0.0, SVG Export Plug-In . SVG Version: 6.00 Build 0)  -->
<!DOCTYPE svg PUBLIC "-//W3C//DTD SVG 1.1//EN" "http://www.w3.org/Graphics/SVG/1.1/DTD/svg11.dtd">
<svg version="1.1" id="Layer_1" xmlns="http://www.w3.org/2000/svg" xmlns:xlink="http://www.w3.org/1999/xlink" x="0px" y="0px"
	 width="6453px" height="5696px" viewBox="0 0 6453 5696" enable-background="new 0 0 6453 5696" xml:space="preserve">
<g transform="translate(0.000000,5696.000000) scale(0.100000,-0.100000)">
	<path fill="#8B181B" d="M32062.479,36893.672c-174.395-50.391-307.998-180-367.998-356.797l-21.602-63.996l-4.795-720
		c-4.805-779.207-3.203-745.605-51.211-934.402c-125.596-492.805-506.396-923.203-985.596-1111.992
		c-52.002-20.812-180.801-62.402-286.396-92.812c-1190.391-343.996-2191.191-974.395-2915.996-1836.797
		c-474.395-564.795-795.195-1190.391-970.391-1891.201c-31.211-127.197-32.812-138.398-33.613-260.791
		c0-108.008,2.402-138.398,17.617-192.002c35.996-130.4,95.195-233.604,192.793-333.604c93.594-96.797,195.195-158.398,331.191-200
		l58.398-18.398l5151.992-2.402c3705.623-1.602,5165.623,0,5200.018,6.406c346.387,63.203,598.398,347.998,617.598,699.199
		c4.805,94.395-3.203,155.996-42.402,315.195c-304.004,1238.398-1144.805,2327.207-2364.004,3060
		c-485.586,292-964.805,495.996-1570.391,669.598c-156.797,44.797-253.594,80.801-352.812,130.402
		c-527.188,263.203-871.211,773.602-915.994,1357.598c-4.004,60.801-8.008,376.004-8.008,716.797
		c0,575.203-0.801,612-15.195,668.809c-49.59,194.395-203.203,351.191-386.406,394.395
		C32268.875,36913.672,32126.482,36911.277,32062.479,36893.672z"/>
	<path fill="#8B181B" d="M27360.896,28308.877c-293.613-27.197-531.211-229.6-613.613-523.994l-18.398-64.004v-1024.004
		c0-1151.992,2.402-1220.791,64.805-1720c252.793-2034.395,1187.988-3839.199,2551.191-4926.396
		c431.201-343.994,813.594-560.801,1387.998-788.799c503.203-198.398,898.398-445.596,1283.994-800.801
		c76.006-69.6,164.805-141.602,185.605-149.6c12.793-4.795,87.197,51.201,181.602,137.598
		c194.395,177.607,349.59,299.209,536.795,422.402c246.406,161.602,474.414,276.807,804.805,408.799
		c327.207,129.6,535.215,230.4,783.203,379.199c600.801,360.801,1159.199,874.395,1626.406,1496.807
		c537.598,715.996,962.402,1590.4,1224.805,2524.795c149.59,532.793,241.582,1040.801,302.402,1672.002
		c15.996,167.197,17.598,229.6,20,1259.199c3.184,1190.4,5.586,1131.201-45.605,1262.402c-33.613,88.799-80,155.195-163.203,238.398
		c-120.801,119.199-257.598,181.602-431.191,195.996c-53.613,4.795-1762.402,7.998-4223.223,7.998h-4132.791l-4.805-29.6
		c-18.398-111.191-67.188-721.602-84.785-1050.4c-24.004-450.391-24.004-1168.789,0-1603.994
		c84.785-1546.396,400.801-2912.002,947.197-4092.002c250.391-540,598.389-1102.402,890.391-1436.797l62.393-71.201l-95.996,83.203
		c-678.389,585.596-1238.379,1278.398-1680.781,2076.797c-95.996,173.604-264.004,518.398-344.805,707.998
		c-315.195,735.996-533.613,1522.402-657.598,2370.4c-136.016,924.805-154.414,1923.203-52.812,2834.395
		c11.211,97.607,20,184.805,20,194.404c0,16.797-2.383,16.797-129.59,16.006
		C27483.279,28315.273,27396.092,28312.08,27360.896,28308.877z"/>
</g>
<g>
	<path fill="#8B181B" d="M214.63,2322.083c-143.557-144.588-84.505-344.133,45.89-473.6
		c130.395-129.466,332.128-187.079,474.803-43.378l213.133,214.664c142.677,143.701,84.506,344.133-45.89,473.6
		c-130.396,129.466-332.129,187.08-474.804,43.379L214.63,2322.083z M586.542,2379.1c45.796,46.125,119.265,17.222,169.823-32.979
		c50.562-50.201,78.224-123.464,33.309-168.705l-213.133-214.664c-48.438-48.787-122.795-19.002-174.242,32.082
		c-49.675,49.319-74.688,123.476-28.892,169.603L586.542,2379.1z"/>
	<path fill="#8B181B" d="M1910.152,1792.507l-211.06,114.257l-135.067-128.721l-207.758,112.473l36.132,182.276l-211.059,114.258
		l-149.805-925.26l179.179-96.999L1910.152,1792.507z M1422.136,1628.851l-177.046-198.388l-5.499,2.977l66.024,258.491
		L1422.136,1628.851z"/>
	<path fill="#8B181B" d="M2302.616,782.98l271.282-64.082l-242.342,496.512l444.588,365.067l-276.149,65.234l-292.894-255.764
		l-5,11.456l70.405,298.047l-218.977,51.727l-203.461-861.294l218.975-51.728l75.29,318.729L2302.616,782.98z"/>
	<path fill="#8B181B" d="M2930.53,691.631h225v663.75h360v221.25h-585V691.631z"/>
	<path fill="#8B181B" d="M4476.428,1769.438l-234.049-53.105l-16.803-185.822l-230.395-52.274l-92.914,160.927l-234.048-53.104
		l496.921-794.745l198.7,45.084L4476.428,1769.438z M4217.137,1324.793l-2.478-265.889l-6.099-1.384l-120.641,237.954
		L4217.137,1324.793z"/>
	<path fill="#8B181B" d="M5056.396,1062.597l182.408,109.013l-10.179,433.693l-26.677,190.842l6.006,2.133
		c-1.072-0.642,57.846-143.088,56.773-143.729l205.842-344.428l190.994,114.139l-454.002,759.676l-194.213-116.066l7.229-401.961
		l24.536-192.125l-6.01-2.13l-63.17,161.745l-181.475,303.654l-192.063-114.78L5056.396,1062.597z"/>
	<path fill="#8B181B" d="M6219.553,1930c115.693,134.613,155.801,319.357-0.617,453.793l-225.623,193.911
		c-154.521,132.803-330.188,64.566-444.937-70.859l-215.908-251.217l671.174-576.844L6219.553,1930z M5712.527,2375.653
		c49.701,57.827,101.9,59.114,145.506,21.635l209.504-180.06c43.608-37.479,47.475-88.602-1.414-145.478l-74.141-86.266
		l-353.598,303.901L5712.527,2375.653z"/>
</g>
<rect x="724.652" y="4210" fill="none" width="4812.053" height="1192"/>
<g enable-background="new    ">
	<path fill="#8B181B" d="M939.48,4460.8v408.831H773.63V4460.8H601.364v-128.944h510.382V4460.8H939.48z"/>
	<path fill="#8B181B" d="M1387.05,4698.969h-29.322v170.662h-165.852v-537.018h259.313c133.781,0,237.323,50.818,240.989,176.73
		c0,99.362-48.563,155.492-127.367,175.972l176.848,184.315h-204.336L1387.05,4698.969z M1453.939,4582.16
		c103.543,0,103.543-122.877,0-122.877h-96.212v122.877H1453.939z"/>
	<path fill="#8B181B" d="M2352.503,4869.631h-175.931l-42.15-107.707H1961.24l-40.318,107.707h-175.931l226.328-537.018h149.357
		L2352.503,4869.631z M2095.021,4641.322l-44.899-157.01h-4.582l-47.648,157.01H2095.021z"/>
	<path fill="#8B181B" d="M2861.884,4756.613c-54.062,87.229-152.105,120.603-233.657,120.603
		c-127.367,0-255.649-61.438-255.649-183.558v-185.074c0-121.358,128.283-183.557,258.397-183.557
		c79.719,0,175.932,28.064,228.16,123.637l-133.781,44.75c-43.982-66.748-188.759-51.578-188.759,15.17v185.074
		c0,64.474,146.609,82.678,182.345,8.345L2861.884,4756.613z"/>
	<path fill="#8B181B" d="M3273.293,4332.613h204.336l-256.564,259.406l255.648,277.61h-208.002l-165.852-191.899l-5.498,6.067
		v185.832h-164.935v-537.019h164.935v198.728L3273.293,4332.613z"/>
	<path fill="#8B181B" d="M4175.527,4756.613c-54.062,87.229-152.109,120.603-233.658,120.603
		c-127.367,0-255.648-61.438-255.648-183.558v-185.074c0-121.358,128.281-183.557,258.396-183.557
		c79.719,0,175.932,28.064,228.16,123.637l-133.781,44.75c-43.982-66.748-188.761-51.578-188.761,15.17v185.074
		c0,64.474,146.609,82.678,182.347,8.345L4175.527,4756.613z"/>
	<path fill="#8B181B" d="M4256.07,4332.613h164.934v402.764H4684.9v134.254h-428.83V4332.613z"/>
	<path fill="#8B181B" d="M4891.971,4689.866c0,86.47,185.095,86.47,186.01,0v-357.253h165.853v357.253
		c-0.916,251.821-518.629,251.821-517.713,0v-357.253h165.853v357.253H4891.971z"/>
	<path fill="#8B181B" d="M5756.041,4583.677c88.881,37.166,99.877,106.188,91.629,147.147
		c-16.492,86.47-87.049,138.807-230.908,138.807h-264.812v-537.018h260.23c123.701,0,214.416,61.438,210.75,163.836
		C5822.014,4520.723,5802.771,4563.956,5756.041,4583.677z M5612.18,4542.718c79.72,0,82.47-95.571,0-95.571h-95.295v95.571H5612.18
		z M5612.18,4750.547c98.961,0,97.129-109.982,0-109.982h-95.295v109.982H5612.18z"/>
</g>
</svg>
