<?xml version="1.0" encoding="utf-8"?>
<!-- Generator: Adobe Illustrator 16.0.0, SVG Export Plug-In . SVG Version: 6.00 Build 0)  -->
<!DOCTYPE svg PUBLIC "-//W3C//DTD SVG 1.1//EN" "http://www.w3.org/Graphics/SVG/1.1/DTD/svg11.dtd">
<svg version="1.1" id="Layer_1" xmlns="http://www.w3.org/2000/svg" xmlns:xlink="http://www.w3.org/1999/xlink" x="0px" y="0px"
	 width="6453px" height="5696px" viewBox="0 0 6453 5696" enable-background="new 0 0 6453 5696" xml:space="preserve">
<g>
	
		<rect x="2530.518" y="3507.358" transform="matrix(-0.9626 0.2709 -0.2709 -0.9626 6078.54 6305.1357)" fill="#FFFFFF" width="147.189" height="129.458"/>
	
		<rect x="2780.289" y="3616.272" transform="matrix(-0.9113 -0.4118 0.4118 -0.9113 3938.7605 8210.6387)" fill="#FFFFFF" width="147.203" height="129.47"/>
	<g>
		<path fill="#8B181B" d="M5051.158,315.6c-6.629,0-31.436,57.881-54.602,127.352c-23.143,71.099-90.955,224.896-147.17,343.967
			c-150.504,307.597-284.444,506.047-496.125,735.918c-109.16,120.724-110.801,124.031-110.801,213.333
			c0,51.268-8.271,122.377-18.182,158.76c-38.062,147.188-38.062,140.569,4.943,140.569c95.918,0,582.138-466.358,745.842-716.062
			c167.043-253.036,214.987-390.301,214.987-623.479c1.667-185.22-21.499-267.907-90.956-342.326
			C5079.245,332.138,5057.76,315.6,5051.158,315.6z"/>
		<path fill="#8B181B" d="M4614.555,542.177c-14.896,89.289-119.066,343.968-178.604,441.538
			c-82.688,137.274-218.295,314.212-329.098,433.282c-176.967,188.528-477.92,429.975-666.461,534.162
			c-358.862,200.104-646.604,463.05-782.226,714.42c-84.354,157.104-150.504,499.431-152.146,780.567
			c0,52.92-11.575,117.43-24.808,143.877c-29.768,57.882-18.179,67.804,62.845,42.996l62.83-18.189l4.984-248.062
			c3.282-233.166,6.604-256.33,54.562-385.311c69.471-180.271,153.799-315.878,282.792-451.486
			c163.721-175.297,454.78-377.055,511.008-355.556c29.771,11.576,193.503-87.649,340.673-210.014
			c52.921-44.664,167.042-163.734,253.012-264.604c87.676-102.545,165.375-188.541,173.647-190.182
			c8.271-3.32,14.896,9.91,14.896,29.755c0,19.857,6.629,33.075,13.229,29.767c44.649-18.178,355.56-406.809,410.117-511.008
			c51.276-99.225,54.603-410.13,6.628-527.546C4644.322,464.438,4629.451,467.758,4614.555,542.177z"/>
		<path fill="#8B181B" d="M4978.38,1489.763c-4.962,0-54.574,47.958-109.135,107.494
			c-107.493,114.108-357.224,335.711-519.29,458.103c-90.957,69.443-102.533,85.981-138.93,195.129
			c-23.143,64.496-69.434,167.028-104.172,226.576c-34.732,59.522-59.535,112.442-56.218,117.403
			c14.871,13.229,261.281-148.837,424.99-279.483c86.008-71.107,193.501-171.986,236.513-224.906
			c115.766-138.915,274.513-469.665,274.513-570.543C4986.648,1502.992,4983.341,1489.763,4978.38,1489.763z"/>
		<path fill="#8B181B" d="M4207.745,1580.719l-76.086,90.957c-148.837,175.297-363.825,373.747-504.394,463.051l-142.227,90.955
			v115.767c0,67.803-9.938,142.222-24.807,178.604c-14.885,33.073-19.846,61.188-9.938,61.188
			c54.603,0,489.521-279.484,570.543-365.479c112.484-119.058,188.541-335.711,188.541-527.547L4207.745,1580.719z"/>
		<path fill="#8B181B" d="M4115.122,2192.605c-71.113,67.804-388.632,287.752-515.983,358.877
			c-31.408,16.537-54.562,44.639-59.521,74.418c-6.628,24.808-28.114,89.291-49.612,143.86l-39.702,95.935l61.2-11.592
			c133.968-23.15,190.186-44.648,248.062-97.568c33.075-29.771,69.458-51.271,77.727-47.946
			c29.771,9.909,133.94-89.315,200.091-188.54c61.201-90.957,170.365-337.365,172.004-382.003
			C4209.387,2106.611,4201.117,2111.572,4115.122,2192.605z"/>
		<path fill="#8B181B" d="M4435.949,2404.286c-165.375,110.802-368.771,239.794-453.127,284.446
			c-143.89,77.735-153.799,87.646-186.874,167.024c-19.845,47.959-51.253,102.531-69.458,122.377
			c-67.804,72.78,28.114,74.421,238.141,3.32c314.213-105.854,562.278-315.878,706.164-597.019
			c46.293-90.957,84.328-168.683,84.328-173.645C4755.123,2190.952,4733.624,2204.195,4435.949,2404.286z"/>
		<path fill="#8B181B" d="M3427.162,2217.413c-49.613,0-296.021,181.913-425.014,312.558
			c-163.734,165.375-231.524,276.181-302.637,476.293c-56.229,165.375-74.418,370.43-49.611,587.08
			c8.269,71.103,9.922,178.597,3.32,239.795c-6.627,61.188-9.938,114.099-6.627,117.402c11.572,13.229,54.569-21.498,82.688-66.146
			c23.166-41.348,34.715-104.188,42.985-261.292c14.896-248.062,29.793-310.896,114.121-487.855
			c76.06-160.415,173.645-272.864,352.249-408.476c165.375-125.676,210.022-208.359,210.022-390.272
			C3448.661,2252.141,3442.033,2217.413,3427.162,2217.413z"/>
		<path fill="#8B181B" d="M4520.291,2698.654c-47.945,46.305-119.083,107.492-158.762,133.966
			c-109.16,74.419-325.787,171.976-479.586,213.322c-128.979,34.739-140.569,41.341-170.323,99.222
			c-16.537,34.742-38.062,66.15-47.972,72.768c-31.438,19.856-16.537,57.884,19.845,57.884c87.646,0,431.629-84.329,517.624-127.343
			c122.391-59.521,226.562-152.146,300.98-267.902c57.883-89.29,120.726-221.594,120.726-251.37
			C4622.823,2602.736,4609.593,2612.658,4520.291,2698.654z"/>
		<path fill="#8B181B" d="M3326.27,2708.589c-190.185,125.673-324.121,271.2-401.852,434.923
			c-38.036,77.738-79.38,193.502-94.273,259.651c-29.754,133.94-34.719,319.161-9.908,319.161c9.908,0,19.844-9.911,23.165-21.486
			c3.28-9.936,23.14-82.688,44.625-160.427c72.778-269.548,183.579-426.654,421.706-595.349
			c59.548-42.998,94.277-85.996,133.967-165.375c29.768-59.535,54.574-120.711,54.574-138.916
			C3498.273,2601.096,3475.107,2611.005,3326.27,2708.589z"/>
		<path fill="#8B181B" d="M3709.953,2839.223c-28.127,14.885-104.188,36.383-168.695,47.959
			c-135.581,23.152-221.59,74.417-383.645,233.178c-122.394,120.735-172.002,211.691-238.152,441.555
			c-54.574,191.847-56.24,193.486-34.717,193.486c6.603,0,47.942-67.793,90.957-152.146
			c152.115-294.367,198.446-339.021,487.854-486.188c185.194-92.621,229.855-130.656,289.406-251.366
			C3784.372,2804.494,3781.052,2802.84,3709.953,2839.223z"/>
		<path fill="#8B181B" d="M3653.739,3100.525c-24.811,6.604-66.15,16.537-95.944,21.5
			c-59.521,11.571-243.074,105.822-320.814,163.707c-51.275,39.688-173.644,205.062-162.054,218.295
			c4.947,3.31,56.214-24.809,117.403-61.188c61.188-36.37,163.734-85.981,229.884-110.789
			c89.289-33.075,137.248-64.508,195.129-125.697c44.665-44.647,79.382-89.29,79.382-99.225
			C3696.72,3097.219,3678.545,3093.898,3653.739,3100.525z"/>
		<path fill="#8B181B" d="M4262.307,3199.751c-14.885,4.962-105.84,24.807-201.758,42.985
			c-438.242,87.646-406.81,76.072-459.742,170.336c-26.473,47.972-64.496,100.892-84.354,117.429
			c-62.829,56.215-42.982,64.483,135.621,54.574c196.796-11.589,320.827-47.972,434.923-130.659
			c71.14-49.612,205.078-213.321,205.078-248.062C4292.073,3198.085,4278.843,3194.777,4262.307,3199.751z"/>
		<path fill="#8B181B" d="M3400.689,3379.997c-168.656,69.458-310.896,168.685-390.272,274.535
			c-36.383,47.946-104.187,127.325-152.146,176.938c-46.308,47.96-81.021,90.956-74.418,95.931c4.944,4.963,28.11,9.91,51.275,9.91
			c28.088,0,66.15-26.447,124.031-87.636c105.826-110.813,152.119-143.89,307.584-208.387
			c67.791-29.771,148.838-72.751,178.604-95.917c59.551-44.651,152.146-176.951,152.146-216.628
			C3597.498,3302.271,3572.691,3308.887,3400.689,3379.997z"/>
	</g>
</g>
<g transform="translate(0.000000,5696.000000) scale(0.100000,-0.100000)">
	<path fill="#8B181B" d="M32884.059,18730.557c-127.02,154.648-316.512,233.457-521.688,217.168l-74.219-6.006l-731.23-308.945
		c-791.211-334.756-756.475-321.729-968.594-355.41c-553.789-87.568-1155.625,110.469-1555.674,513.467
		c-43.73,43.594-141.982,155.898-218.809,249.57c-867.188,1055.596-1941.777,1794.336-3131.035,2152.48
		c-778.711,234.258-1552.07,286.475-2338.145,158.457c-142.402-23.838-154.453-27.09-278.73-79.648
		c-109.385-47.08-139.121-62.725-186.777-101.504c-116.367-93.291-195.068-198.223-253.809-340.635
		c-57.227-136.973-75.332-266.719-58.184-422.598l6.816-67.139l2243.008-5218.437
		c1613.438-3753.34,2251.387-5231.191,2272.852-5263.232c214.98-323.232,613.232-454.307,977.246-320.693
		c97.695,36.26,156.582,71.23,300.723,180.322c1121.641,847.588,1857.803,2173.623,2068.535,3727.676
		c84.062,619.014,81.777,1193.213-6.348,1882.148c-22.979,178.32-28.701,292.031-21.709,414.131
		c36.758,648.603,403.721,1219.442,975.596,1519.315c59.834,30.557,377.295,171.982,722.412,320.518
		c582.52,250.693,619.414,267.539,670.652,306.895c175.266,134.951,267.102,358.828,231.027,563.203
		C32994.285,18530.254,32929.793,18673.428,32884.059,18730.557z"/>
	<path fill="#8B181B" d="M22141.17,19750.234c-155.527,285.488-464.033,437.9-798.084,393.037l-72.832-9.268l-1037.012-446.299
		c-1166.613-502.09-1235.246-534.492-1713.586-815.264c-1950.047-1142.686-3370.165-2876.366-3877.021-4730.712
		c-160.42-586.592-213.33-1068.359-193.867-1749.414c18.389-596.055-59.697-1104.004-251.348-1649.307
		c-37.363-107.314-71.572-228.623-70.615-253.164c0.723-15.059,89.863-65.977,218.496-123.945
		c264.59-119.443,455.381-223.623,661.719-359.502c271.055-179.092,487.09-359.795,764.756-636.836
		c273.857-274.872,466.602-441.601,725.36-627.89c627.238-451.162,1390.723-792.832,2224.668-994.658
		c959.395-232.393,2030.039-281.494,3090.654-139.961c604.766,80.713,1159.316,208.945,1825.039,422.48
		c176.289,56.67,240.176,82.256,1283.896,528.564c1206.895,515.596,1147.988,487.373,1258.545,596.367
		c75.283,72.743,122.295,148.661,170.293,269.188c68.066,174.287,71.641,340.029,10.566,522.08
		c-18.516,56.377-760.029,1788.271-1832.549,4280.312l-1801.24,4185.253l-32.07-8.027
		c-120.625-29.844-760.049-246.445-1100.684-371.943c-466.58-171.982-1194.092-485.078-1624.365-699.072
		c-1529.062-759.861-2774.277-1675.048-3731.112-2742.685c-437.725-488.926-855.596-1086.455-1066.963-1527.91l-44.922-94.209
		l42.422,133.467c297.363,942.227,754.893,1811.289,1370.614,2607.275c133.965,172.871,409.902,493.291,566.691,657.764
		c607.969,639.979,1309.168,1203.896,2113.887,1699.052c877.273,540.811,1880.332,994.57,2847.361,1288.828
		c103.73,31.172,195.869,60.264,205.605,64.463c17.002,7.324,15.957,9.756-40.293,138.223
		C22200.975,19629.072,22159.744,19715.996,22141.17,19750.234z"/>
</g>
<rect x="724.652" y="4210" fill="none" width="4812.053" height="1192"/>
<rect x="2907" y="2472.682" fill="none" width="2360" height="688"/>
</svg>
