<?xml version="1.0" encoding="utf-8"?>
<!-- Generator: Adobe Illustrator 16.0.0, SVG Export Plug-In . SVG Version: 6.00 Build 0)  -->
<!DOCTYPE svg PUBLIC "-//W3C//DTD SVG 1.1//EN" "http://www.w3.org/Graphics/SVG/1.1/DTD/svg11.dtd">
<svg version="1.1" id="Layer_1" xmlns="http://www.w3.org/2000/svg" xmlns:xlink="http://www.w3.org/1999/xlink" x="0px" y="0px"
	 width="6453px" height="5696px" viewBox="0 0 6453 5696" enable-background="new 0 0 6453 5696" xml:space="preserve">
<g transform="translate(0.000000,5696.000000) scale(0.100000,-0.100000)">
	<path fill="#A02816" stroke="#912010" stroke-miterlimit="10" d="M31898.045,37241.66
		c-173.955-50.273-307.227-179.562-367.07-355.91l-21.553-63.836l-4.785-718.203c-4.795-777.258-3.193-743.73-51.084-932.07
		c-125.283-491.562-505.127-920.891-983.125-1109.199c-51.875-20.773-180.352-62.258-285.684-92.59
		c-1187.422-343.133-2185.723-971.961-2908.721-1832.195c-473.203-563.389-793.203-1187.422-967.959-1886.484
		c-31.133-126.875-32.734-138.047-33.516-260.127c0-107.744,2.383-138.057,17.559-191.523
		c35.898-130.078,94.961-233.027,192.305-332.773c93.359-96.553,194.707-157.998,330.371-199.502l58.262-18.35l5139.111-2.402
		c3696.348-1.592,5152.684,0,5187,6.396c345.547,63.047,596.906,347.129,616.055,697.451c4.797,94.16-3.191,155.605-42.293,314.404
		c-303.223,1235.303-1141.945,2321.387-2358.078,3052.344c-484.383,291.277-962.391,494.766-1566.473,667.93
		c-156.418,44.688-252.969,80.594-351.914,130.078c-525.898,262.539-869.043,771.668-913.73,1354.199
		c-3.975,60.652-7.979,375.066-7.979,715.008c0,573.77-0.791,610.48-15.176,667.129c-49.463,193.906-202.666,350.324-385.42,393.41
		C32103.934,37261.602,31961.893,37259.219,31898.045,37241.66z"/>
	<path fill="#A02816" stroke="#912010" stroke-miterlimit="10" d="M27208.211,28678.32
		c-292.881-27.129-529.883-229.023-612.08-522.686l-18.359-63.838v-1021.445c0-1149.111,2.402-1217.744,64.648-1715.703
		c252.168-2029.307,1185.029-3829.609,2544.824-4914.082c430.127-343.135,811.562-559.395,1384.521-786.826
		c501.953-197.9,896.162-444.482,1280.791-798.799c75.811-69.414,164.395-141.23,185.146-149.209
		c12.754-4.805,86.973,51.064,181.143,137.236c193.906,177.168,348.721,298.467,535.459,421.357
		c245.77,161.191,473.203,276.113,802.762,407.773c326.406,129.277,533.887,229.834,781.25,378.242
		c599.297,359.893,1156.328,872.217,1622.355,1493.076c536.25,714.199,959.988,1586.426,1221.727,2518.477
		c149.219,531.465,240.996,1038.203,301.652,1667.822c15.957,166.777,17.559,229.033,19.949,1256.055
		c3.176,1187.422,5.598,1128.369-45.496,1259.248c-33.508,88.564-79.797,154.805-162.785,237.803
		c-120.508,118.896-256.953,181.143-430.125,195.498c-53.469,4.785-1757.988,7.979-4212.627,7.979h-4122.48l-4.785-29.521
		c-18.359-110.918-67.031-719.805-84.59-1047.773c-23.936-449.268-23.936-1165.869,0-1599.99
		c84.59-1542.529,399.805-2904.727,944.844-4081.777c249.766-538.633,596.895-1099.648,888.164-1433.203l62.236-71.016
		l-95.752,82.988c-676.699,584.15-1235.293,1275.215-1676.592,2071.621c-95.762,173.164-263.34,517.1-343.945,706.23
		c-314.404,734.141-532.275,1518.574-655.947,2364.463c-135.664,922.49-154.023,1918.398-52.676,2827.305
		c11.172,97.363,19.951,184.346,19.951,193.926c0,16.748-2.393,16.748-129.277,15.967
		C27330.291,28684.707,27243.318,28681.523,27208.211,28678.32z"/>
</g>
<g>
	<path fill="#A02816" stroke="#912010" stroke-miterlimit="10" d="M994.554,2261.646c0,114.933-40.521,213.98-121.54,297.147
		c-81.016,83.166-178.783,124.749-293.277,124.749c-115.368,0-211.954-38.45-289.729-115.354
		c-79.94-79.053-119.902-179.725-119.902-301.991c0-112.77,40.508-209.229,121.523-289.371
		c81.019-80.146,177.93-120.214,290.709-120.214c112.343,0,209.132,39.541,290.366,118.593
		C953.94,2054.278,994.554,2149.756,994.554,2261.646z M787.137,2272.061c0-56.232-19.673-104.907-58.978-146.01
		c-39.323-41.085-87.062-61.642-143.237-61.642c-57.045,0-106.309,20.339-147.783,61c-41.489,40.667-62.219,89.544-62.219,146.651
		c0,56.231,19.762,104.799,59.304,145.682c39.526,40.882,87.174,61.314,142.908,61.314c57.465,0,106.826-20.217,148.101-60.678
		C766.503,2377.936,787.137,2329.167,787.137,2272.061z"/>
	<path fill="#A02816" stroke="#912010" stroke-miterlimit="10" d="M1853.278,1804.044l-312.46,177.198l-75.285-132.758
		l56.397-31.982l-55.578-44.167l-184.288,104.511l12.336,66.396l69.494-39.41l76.271,134.49l-306.293,173.695l-85.619-150.979
		l60.89-34.529l-62.855-482.68l-63.14,35.805l-84.636-149.242l268.358-152.188l529.19,415.461l71.597-40.604L1853.278,1804.044z
		 M1347.124,1659.914l-139.131-128.657l36.745,186.72L1347.124,1659.914z"/>
	<path fill="#A02816" stroke="#912010" stroke-miterlimit="10" d="M2725.257,1611.622l-369.827,78.351l-34.524-162.965l58.49-12.391
		l-216.438-139.721l37.626,177.603l70.553-14.947l34.522,162.965l-344.47,72.979l-35.975-169.796l73.558-15.583l-93.45-441.08
		l-73.551,15.581l-35.562-167.844l337.643-71.532l35.559,167.844l-63.719,13.5l34.318,161.991l140.052-198.935l-54.054,11.449
		l-35.559-167.847l350.801-74.32l35.559,167.851l-44.385,9.4l-197.525,265.39l288.438,176.229l65.944-13.972L2725.257,1611.622z"/>
	<path fill="#A02816" stroke="#912010" stroke-miterlimit="10" d="M3484.36,1603.033h-612.464v-173.564h82.312v-450.87h-82.312
		V807.029h354.532v171.567h-70.245v438.9h137.654v-109.726h190.521L3484.36,1603.033L3484.36,1603.033z"/>
	<path fill="#A02816" stroke="#912010" stroke-miterlimit="10" d="M4436.385,1776.803l-351.752-72.813l30.938-149.45l63.49,13.143
		l-12.658-69.85l-207.463-42.949l-34.509,58.053l78.236,16.193l-31.342,151.403l-344.811-71.382l35.187-169.959l68.543,14.188
		l271.021-404.326l-71.077-14.713l34.777-168.007l302.107,62.537l123.897,661.28l80.604,16.688L4436.385,1776.803z
		 M4150.893,1334.691l-19.761-188.47l-95.497,164.609L4150.893,1334.691z"/>
	<path fill="#A02816" stroke="#912010" stroke-miterlimit="10" d="M5565.704,1643.505l-66.628-33.404l-279.854,558.212
		l-165.748-83.098l-78.781-515.506l-112.924,225.24l70.443,35.316l-77.785,155.156l-313.886-157.361l77.788-155.157l66.883,33.527
		l202.066-403.054l-71.34-35.765l76.896-153.375l225.979,113.295l81.875,530.862l119.349-238.06l-75.321-37.759l76.896-153.375
		L5642.6,1490.13L5565.704,1643.505z"/>
	<path fill="#A02816" stroke="#912010" stroke-miterlimit="10" d="M6138.801,2587.434
		c-86.73,76.242-179.456,114.877-278.145,115.928c-107.912,1.061-202.217-44.326-282.955-136.169l-267.455-304.259l130.358-114.59
		l49.642,56.471l338.636-297.675l-49.64-56.471l128.857-113.275l270.441,307.664c77.312,87.947,110.467,183.646,99.49,287.089
		C6267.721,2429.799,6221.305,2514.907,6138.801,2587.434z M5993.753,2445.682c49.424-43.439,76.944-91.812,82.582-145.078
		c6.269-58.444-15.413-115.901-65.052-172.371l-46.212-52.571l-322.901,283.847l81.305,92.49
		c35.652,40.561,80.273,58.859,133.872,54.914C5906.005,2503.249,5951.473,2482.85,5993.753,2445.682z"/>
</g>
<g>
	<path fill="#A02816" stroke="#912010" stroke-miterlimit="10" d="M1231.421,4398.573h-95.241v-59.625h-46.419v272.513h47.619
		v107.246H918.886v-107.246h46.021v-272.513h-46.021v61.226h-98.438v-172.471h410.972V4398.573L1231.421,4398.573z"/>
	<path fill="#A02816" stroke="#912010" stroke-miterlimit="10" d="M1739.247,4718.706h-128.053l-120.45-166.87v59.625h28.012
		v107.245h-205.286v-107.245h50.822v-278.115h-50.822v-105.641h221.693c63.489,0,112.446,15.604,146.86,46.816
		c33.074,30.146,49.619,71.498,49.619,124.051c0,44.021-10.804,79.104-32.412,105.242c-17.875,21.605-40.284,34.686-67.229,39.216
		l55.223,68.433h52.022L1739.247,4718.706L1739.247,4718.706z M1608.394,4406.176c0-26.673-9.477-45.48-28.411-56.423
		c-12.544-7.202-29.483-10.806-50.823-10.806h-40.014v132.457h35.61c23.21,0,41.881-4.269,56.024-12.808
		C1599.189,4447.663,1608.394,4430.188,1608.394,4406.176z"/>
	<path fill="#A02816" stroke="#912010" stroke-miterlimit="10" d="M2323.435,4718.706h-221.691v-94.04h40.018l-16.405-40.016H1994.5
		l-13.604,38.812h49.22v95.24h-217.291V4611.46h43.218l113.247-278.115h-44.814v-105.644h190.479l157.664,383.758h50.821
		L2323.435,4718.706L2323.435,4718.706z M2095.74,4487.811l-35.616-111.646l-37.215,111.646H2095.74z"/>
	<path fill="#A02816" stroke="#912010" stroke-miterlimit="10" d="M2841.779,4539.833c-15.479,58.692-45.557,105.185-90.236,139.458
		c-44.688,34.283-97.441,51.422-158.266,51.422c-69.633,0-129.455-24.873-179.478-74.632
		c-50.021-49.754-75.031-109.308-75.031-178.674c0-69.894,25.013-129.985,75.031-180.274
		c50.021-50.283,109.846-75.431,179.478-75.431c29.609,0,57.224,6.14,82.832,18.407c24.011,11.475,39.613,25.078,46.818,40.814
		v-53.222h104.043v190.479h-120.447c-23.748-45.881-60.963-68.826-111.646-68.826c-36.555,0-67.03,11.938-91.438,35.812
		c-24.412,23.882-36.616,53.159-36.616,87.838c0,35.481,12.137,66.166,36.414,92.036c24.271,25.882,53.755,38.814,88.438,38.814
		c25.343,0,47.419-5.268,66.229-15.809c18.806-10.533,34.476-26.609,47.019-48.219L2841.779,4539.833L2841.779,4539.833z"/>
	<path fill="#A02816" stroke="#912010" stroke-miterlimit="10" d="M3405.728,4718.706H3172.03v-102.843h37.218L3096.4,4504.216
		v111.647h44.418v102.842h-217.291v-107.244h46.42v-278.113h-46.42v-105.643h212.89v105.643H3096.4v102.439l110.047-102.439h-34.418
		v-105.643h221.691v105.643h-28.013l-153.265,135.255l151.664,142.858h41.616L3405.728,4718.706L3405.728,4718.706z"/>
	<path fill="#A02816" stroke="#912010" stroke-miterlimit="10" d="M4138.381,4539.833c-15.477,58.692-45.557,105.185-90.24,139.458
		c-44.687,34.283-97.438,51.422-158.266,51.422c-69.63,0-129.455-24.873-179.477-74.632
		c-50.021-49.754-75.029-109.308-75.029-178.674c0-69.894,25.011-129.985,75.029-180.274
		c50.021-50.283,109.848-75.431,179.477-75.431c29.611,0,57.225,6.14,82.833,18.407c24.012,11.475,39.616,25.078,46.819,40.814
		v-53.222h104.045v190.479h-120.449c-23.747-45.881-60.963-68.826-111.646-68.826c-36.554,0-67.027,11.938-91.438,35.812
		c-24.408,23.882-36.615,53.159-36.615,87.838c0,35.481,12.137,66.166,36.416,92.036c24.271,25.882,53.752,38.814,88.438,38.814
		c25.342,0,47.418-5.268,66.229-15.809c18.806-10.533,34.478-26.609,47.021-48.219L4138.381,4539.833L4138.381,4539.833
		L4138.381,4539.833z"/>
	<path fill="#A02816" stroke="#912010" stroke-miterlimit="10" d="M4587.812,4718.706h-378.158v-107.245h50.819v-278.113h-50.819
		v-105.643h218.893v105.643h-43.219v270.516h84.834v-66.828h117.647L4587.812,4718.706L4587.812,4718.706z"/>
	<path fill="#A02816" stroke="#912010" stroke-miterlimit="10" d="M5084.725,4333.348h-47.621v218.488
		c0,50.422-16.943,92.577-50.82,126.454c-34.949,34.953-79.104,52.421-132.455,52.421c-58.689,0-104.312-16.538-136.855-49.62
		c-30.683-31.215-46.021-72.292-46.021-123.251v-224.492h-44.815v-105.643h199.684v105.643h-31.62v215.689
		c0,16.806,6.206,31.146,18.606,43.019c12.402,11.875,27.146,17.808,44.219,17.808c16.807,0,31.145-6.467,43.02-19.408
		c11.865-12.935,17.809-28.213,17.809-45.815v-211.29h-38.814v-105.645h205.688v105.645v-0.002H5084.725z"/>
	<path fill="#A02816" stroke="#912010" stroke-miterlimit="10" d="M5575.12,4583.051c0,38.415-15.146,70.629-45.42,96.641
		c-30.28,26.01-65.696,39.02-106.243,39.02H5167.35v-107.245h53.621V4333.35h-53.621v-105.645h266.514
		c33.874,0,62.425,11.341,85.635,34.012c23.21,22.682,34.814,51.894,34.814,87.641c0,23.746-4.94,44.152-14.811,61.229
		c-10.939,18.676-26.809,31.609-47.618,38.812c28.541,12.005,49.754,29.748,63.627,53.223
		C5568.579,4524.495,5575.12,4551.309,5575.12,4583.051z M5441.064,4371.764c0-14.137-5.739-24.412-17.209-30.812
		c-9.072-5.063-21.479-7.604-37.215-7.604h-41.617v76.83h40.015c15.74,0,28.274-2.527,37.616-7.603
		C5434.922,4395.91,5441.064,4385.639,5441.064,4371.764z M5452.268,4559.441c0-16.81-5.736-29.477-17.207-38.02
		c-9.875-7.467-23.078-11.204-39.615-11.204h-50.422v101.24h49.223c14.938,0,28.346-4.933,40.223-14.806
		C5446.328,4586.788,5452.268,4574.384,5452.268,4559.441z"/>
</g>
</svg>
